<?xml version="1.0" standalone="no"?>
<!DOCTYPE svg PUBLIC "-//W3C//DTD SVG 20010904//EN"
 "http://www.w3.org/TR/2001/REC-SVG-20010904/DTD/svg10.dtd">
<svg version="1.0" xmlns="http://www.w3.org/2000/svg"
 width="700.000000pt" height="700.000000pt" viewBox="0 0 700.000000 700.000000"
 preserveAspectRatio="xMidYMid meet">
<metadata>
Created by potrace 1.11, written by Peter Selinger 2001-2013
</metadata>
<g transform="translate(0.000000,700.000000) scale(0.100000,-0.100000)"
fill="#000000" stroke="none">
<path d="M3123 6984 c-328 -35 -678 -125 -983 -251 -265 -109 -622 -322 -853
-508 -715 -576 -1176 -1421 -1272 -2328 -20 -190 -20 -534 0 -724 96 -907 557
-1752 1272 -2328 231 -186 588 -399 853 -508 223 -92 505 -175 740 -217 382
-68 858 -68 1240 0 235 42 517 125 740 217 265 109 622 322 853 508 715 576
1176 1421 1272 2328 32 305 15 710 -41 1002 -156 808 -592 1535 -1231 2050
-231 186 -588 399 -853 508 -312 129 -655 216 -995 252 -173 18 -572 18 -742
-1z m845 -1481 c251 -196 458 -357 458 -357 1 -1 20 -154 43 -341 23 -187 44
-354 47 -370 5 -30 10 -32 190 -95 l184 -64 -5 -31 c-3 -16 -41 -325 -85 -685
-44 -360 -83 -671 -86 -691 -5 -34 -36 -61 -554 -465 l-550 -429 0 -277 0
-276 268 -4 c209 -2 273 -6 285 -17 13 -10 17 -31 17 -90 0 -42 -5 -83 -10
-91 -8 -13 -94 -15 -670 -15 -576 0 -662 2 -670 15 -5 8 -10 49 -10 91 0 59 4
80 17 90 12 11 76 15 285 17 l268 4 0 276 0 277 -550 429 c-518 404 -549 431
-554 465 -3 20 -42 331 -86 691 -44 360 -82 669 -85 685 l-5 31 184 64 c180
63 185 65 190 95 3 16 24 183 47 370 33 268 45 342 58 352 9 6 214 167 456
357 242 190 446 345 453 345 8 1 219 -159 470 -356z"/>
<path d="M3160 5329 c-184 -144 -346 -270 -360 -281 -23 -18 -26 -34 -72 -405
-26 -212 -51 -389 -55 -393 -4 -4 -75 -31 -158 -59 -82 -29 -154 -56 -158 -60
-5 -5 24 -272 64 -595 l73 -588 445 -348 446 -349 3 222 2 221 -249 251 c-163
164 -251 259 -255 277 -13 59 43 128 104 128 39 0 75 -29 235 -189 l160 -161
5 656 5 656 33 29 c45 40 99 40 144 0 l33 -29 5 -421 5 -421 155 156 c85 85
167 162 182 170 89 47 191 -32 158 -122 -6 -17 -113 -130 -256 -269 l-245
-240 3 -457 3 -457 445 348 445 347 72 575 c40 316 71 583 70 593 -2 16 -34
31 -157 74 -85 30 -159 57 -163 61 -4 5 -29 182 -55 394 -26 212 -50 388 -52
390 -39 33 -706 550 -714 553 -7 3 -162 -113 -346 -257z"/>
</g>
</svg>
